<svg xmlns="http://www.w3.org/2000/svg" width="48" height="48"><path fill="#25b03b" d="M38 6H10a4 4 0 0 0-4 4v28a4 4 0 0 0 4 4h28a4 4 0 0 0 4-4V10a4 4 0 0 0-4-4z"/><path d="M42 13.45v17.87A9.47 9.47 0 0 1 34.5 35c-3.9 0-7.4-2.4-8.84-6h-3.32c-1.44 3.6-4.94 6-8.84 6A9.47 9.47 0 0 1 6 31.32V13.45C6.64 12.07 7.62 11 9 11c.62 0 1.15.28 1.6.62.11-.71.34-1.46.85-1.98.41-.42.95-.64 1.55-.64 1.73 0 2.95 1.56 4.36 3.36C19.05 14.54 20.97 17 24 17s4.95-2.46 6.64-4.63C32.05 10.56 33.27 9 35 9c.6 0 1.14.22 1.55.64.51.52.74 1.27.85 1.98.45-.34.98-.62 1.6-.62 1.38 0 2.36 1.07 3 2.45z" opacity=".05"/><path d="M42 14.86v15.61a9.01 9.01 0 0 1-7.5 4.03c-3.85 0-7.21-2.4-8.49-6h-4.02c-1.28 3.6-4.64 6-8.49 6A9.01 9.01 0 0 1 6 30.47V14.86c.53-1.75 1.51-3.36 3-3.36.78 0 1.46.59 2.02 1.21.02-.96.16-2.09.79-2.72.31-.32.72-.49 1.19-.49 1.49 0 2.63 1.47 3.96 3.17 1.77 2.27 3.77 4.83 7.04 4.83s5.27-2.56 7.04-4.83c1.33-1.7 2.47-3.17 3.96-3.17.47 0 .88.17 1.19.49.63.63.77 1.76.79 2.72.56-.62 1.24-1.21 2.02-1.21 1.49 0 2.47 1.61 3 3.36z" opacity=".07"/><radialGradient id="a" cx="23.902" cy="29.533" r="4.966" gradientTransform="matrix(1 0 0 .8823 0 3.477)" gradientUnits="userSpaceOnUse"><stop offset="0" stop-color="#185c37"/><stop offset=".359" stop-color="#2d8e48"/><stop offset=".791" stop-color="#44c55c"/><stop offset="1" stop-color="#4ddb63"/></radialGradient><path fill="url(#a)" d="M42 18v11.5c-1.43 2.67-4.26 4.5-7.5 4.5-3.82 0-7.05-2.52-8.13-6h-4.74c-1.08 3.48-4.31 6-8.13 6-3.24 0-6.07-1.83-7.5-4.5V18c0-2 .99-6 3-6 1 0 1.94 1.44 2.52 2.1.03-.89-.31-4.1 1.48-4.1 3 0 5 8 11 8s8-8 11-8c1.79 0 1.45 3.21 1.48 4.1C37.06 13.44 38 12 39 12c2.01 0 3 4 3 6z"/><radialGradient id="b" cx="34.5" cy="24" r="6.295" gradientUnits="userSpaceOnUse"><stop offset="0" stop-color="#f7f7f7"/><stop offset=".747" stop-color="#f9f9f9"/><stop offset="1" stop-color="#fff"/></radialGradient><path fill="url(#b)" d="M34.5 31a5.5 5.5 0 0 1-5.5-5.5v-3a5.5 5.5 0 1 1 11 0v3a5.5 5.5 0 0 1-5.5 5.5z"/><path d="M36 22.5v3a2.5 2.5 0 0 1-5 0v-2.59c.16.06.32.09.5.09.83 0 1.5-.67 1.5-1.5 0-.51-.25-.96-.64-1.22.34-.18.73-.28 1.14-.28a2.5 2.5 0 0 1 2.5 2.5z"/><radialGradient id="c" cx="13.5" cy="24" r="6.295" gradientUnits="userSpaceOnUse"><stop offset="0" stop-color="#f7f7f7"/><stop offset=".747" stop-color="#f9f9f9"/><stop offset="1" stop-color="#fff"/></radialGradient><path fill="url(#c)" d="M13.5 31A5.5 5.5 0 0 1 8 25.5v-3a5.5 5.5 0 1 1 11 0v3a5.5 5.5 0 0 1-5.5 5.5z"/><path d="M17 22.5v3a2.5 2.5 0 0 1-5 0v-2.59c.16.06.32.09.5.09.83 0 1.5-.67 1.5-1.5 0-.51-.25-.96-.64-1.22.34-.18.73-.28 1.14-.28a2.5 2.5 0 0 1 2.5 2.5z"/><radialGradient id="d" cx="23.951" cy="27.505" r="4.282" gradientUnits="userSpaceOnUse"><stop offset="0" stop-color="#fed100"/><stop offset="1" stop-color="#e36001"/></radialGradient><circle cx="24" cy="30" r="3" fill="url(#d)"/><radialGradient id="e" cx="24.098" cy="27.571" r="6.337" gradientUnits="userSpaceOnUse"><stop offset=".003" stop-color="#fed100"/><stop offset="1" stop-color="#e36001"/></radialGradient><path fill="url(#e)" d="M24 26a4 4 0 0 0-4 4l4 1 4-1a4 4 0 0 0-4-4z"/></svg>